<svg width="22" height="22" viewBox="0 0 22 22" fill="none" xmlns="http://www.w3.org/2000/svg">
<path d="M22 19.9375C22 21.0766 21.0766 22 19.9375 22H2.0625C0.923398 22 0 21.0766 0 19.9375V8.62486C3.79936e-06 8.31211 0.0711344 8.00345 0.208011 7.72224C0.344887 7.44103 0.543925 7.19463 0.790066 7.00168C1.86055 6.16254 2.74519 5.48209 7.84554 1.7805C8.56848 1.2534 10.003 -0.0149035 11 0.000135581C11.9968 -0.0150754 13.4319 1.25362 14.1545 1.78046C19.2543 5.48166 20.1401 6.16306 21.2099 7.00168C21.4561 7.19463 21.6551 7.44103 21.792 7.72224C21.9289 8.00345 22 8.31211 22 8.62486V19.9375ZM19.1784 11.4896C19.0683 11.3294 18.8476 11.2922 18.6912 11.4077C17.7096 12.1327 16.3081 13.1567 14.1545 14.7197C13.4315 15.2467 11.997 16.515 11 16.4999C10.0027 16.5147 8.56973 15.2476 7.84554 14.7197C5.6922 13.1569 4.29056 12.1328 3.30881 11.4077C3.15245 11.2922 2.93171 11.3294 2.82159 11.4896L2.43177 12.0566C2.38125 12.1301 2.36124 12.2203 2.37599 12.3082C2.39073 12.3962 2.43907 12.4749 2.51079 12.5279C3.49422 13.254 4.89358 14.2763 7.03553 15.8308C7.90668 16.4659 9.4643 17.8853 11 17.875C12.535 17.8854 14.0921 16.4668 14.9644 15.8308C17.1064 14.2762 18.5058 13.254 19.4892 12.5279C19.5609 12.4749 19.6092 12.3962 19.624 12.3082C19.6387 12.2203 19.6187 12.1301 19.5682 12.0566L19.1784 11.4896Z" fill="#382C53"/>
</svg>
