<svg width="20" height="20" viewBox="0 0 20 20" fill="none" xmlns="http://www.w3.org/2000/svg">
<path d="M1.874 20C11.8913 19.9985 19.9985 11.8764 20 1.87398C20.0001 1.43448 19.6956 1.05801 19.2735 0.960661L15.2116 0.02398C14.9974 -0.0254202 14.7726 0.00202345 14.5766 0.101514C14.3806 0.201004 14.2257 0.366213 14.1391 0.568267L12.2636 4.94301C12.1835 5.12989 12.1663 5.33774 12.2146 5.5352C12.263 5.73267 12.3742 5.90906 12.5315 6.03777L14.8987 7.97456C13.4632 11.0335 10.9696 13.4932 7.97458 14.8987L6.03779 12.5314C5.90908 12.3741 5.73269 12.2629 5.53522 12.2145C5.33776 12.1662 5.12992 12.1834 4.94304 12.2635L0.568257 14.139C0.366211 14.2257 0.201008 14.3805 0.101519 14.5766C0.00203 14.7726 -0.0254178 14.9973 0.0239714 15.2115L0.96065 19.2735C1.0083 19.48 1.12455 19.6643 1.29043 19.7963C1.4563 19.9282 1.66202 20 1.874 20Z" fill="#382C53"/>
</svg>
