<svg width="20" height="20" viewBox="0 0 20 20" fill="none" xmlns="http://www.w3.org/2000/svg">
<path d="M4.47668 20H0.330283V6.64732H4.47668V20ZM2.40125 4.82589C1.07565 4.82589 0 3.72768 0 2.40179C0 1.07589 1.07565 0 2.40125 0C3.72685 0 4.8025 1.07589 4.8025 2.40179C4.8025 3.72768 3.72685 4.82589 2.40125 4.82589ZM19.9955 20H15.8581V13.5C15.8581 11.9509 15.8268 9.96429 13.7023 9.96429C11.5465 9.96429 11.2162 11.6473 11.2162 13.3884V20H7.07431V6.64732H11.0511V8.46875H11.1091C11.6626 7.41964 13.015 6.3125 15.0324 6.3125C19.2278 6.3125 20 9.07589 20 12.6652V20H19.9955Z" fill="#382C53"/>
</svg>
